<?xml version="1.0" encoding="UTF-8" standalone="no"?>
<svg
   xmlns:dc="http://purl.org/dc/elements/1.1/"
   xmlns:cc="http://creativecommons.org/ns#"
   xmlns:rdf="http://www.w3.org/1999/02/22-rdf-syntax-ns#"
   xmlns:svg="http://www.w3.org/2000/svg"
   xmlns="http://www.w3.org/2000/svg"
   xmlns:sodipodi="http://sodipodi.sourceforge.net/DTD/sodipodi-0.dtd"
   xmlns:inkscape="http://www.inkscape.org/namespaces/inkscape"
   inkscape:version="1.0 (4035a4f, 2020-05-01)"
   sodipodi:docname="icon-stop-circle.svg"
   id="svg837"
   version="1.1"
   width="24"
   viewBox="0 0 24 24"
   height="24">
  <metadata
     id="metadata843">
    <rdf:RDF>
      <cc:Work
         rdf:about="">
        <dc:format>image/svg+xml</dc:format>
        <dc:type
           rdf:resource="http://purl.org/dc/dcmitype/StillImage" />
        <dc:title></dc:title>
      </cc:Work>
    </rdf:RDF>
  </metadata>
  <defs
     id="defs841" />
  <sodipodi:namedview
     inkscape:current-layer="svg837"
     inkscape:window-maximized="0"
     inkscape:window-y="0"
     inkscape:window-x="1920"
     inkscape:cy="12"
     inkscape:cx="12"
     inkscape:zoom="24.916667"
     inkscape:guide-bbox="true"
     showguides="false"
     showgrid="false"
     id="namedview839"
     inkscape:window-height="900"
     inkscape:window-width="1440"
     inkscape:pageshadow="2"
     inkscape:pageopacity="0"
     guidetolerance="10"
     gridtolerance="10"
     objecttolerance="10"
     borderopacity="1"
     bordercolor="#666666"
     pagecolor="#ffffff">
    <sodipodi:guide
       id="guide847"
       orientation="1,0"
       position="12,25.525084" />
    <sodipodi:guide
       id="guide849"
       orientation="0,-1"
       position="12.481605,14.006689" />
  </sodipodi:namedview>
  <path
     id="path833"
     fill="none"
     d="M0 0h24v24H0z" />
  <path
     sodipodi:nodetypes="ssssssssss"
     id="path835"
     d="M 12,2 C 6.48,2 2,6.48 2,12 2,17.52 6.48,22 12,22 17.52,22 22,17.52 22,12 22,6.48 17.52,2 12,2 Z m 0,18 C 7.59,20 4,16.41 4,12 4,7.59 7.59,4 12,4 c 4.41,0 8,3.59 8,8 0,4.41 -3.59,8 -8,8 z" />
  <rect
     y="9.0300999"
     x="8.6688967"
     height="5.9799333"
     width="6.7023411"
     id="rect845"
     style="fill:#000000;stroke:#000000;fill-opacity:1;stroke-opacity:1" />
</svg>
